 http://img861.imageshack.us/img861/2629/zq9017geaf.jpg

Country.......: USA, Russia
Genre.........: Action
Date release..: 09.02.2010 [World]
Director......: J. Stephen Maunder
Writers.......: J. Stephen Maunder
Duration......: 85 min.
More..........: http://www.imdb.com/title/tt1212442
Trailer.......: http://www.imdb.com/video/imdblink/vi2729286937
Trailer.......:

Pilot :
During a military raid to rescue in Iraq, Max Forrester's teammate and girlfriend Sasha, disappears mysteriously. Two years later, Max, who has since retired from the army receives a call from his former commander Captain Dyer, who informs him that Sasha is still alive and is in a place called Paradise Island, and also inform him that the army is ready to take action to recover it and accuse it of treason and desertion. Max then decided to go for help Sasha and once found, she learns from her that she was working undercover to discover and report a dangerous arms smuggling conducted by a handful of men called Shadow Company. Max and Sasha must now prevent the illicit trafficking takes place and retrieve the weapons in a spectacular and very dangerous showdown with Ghost, the head of Shadow Company.

Cats :
Mark Dacascos   	 ...  	Lt. Max Forrester
Armand Assante 	... 	Cpt. John 'Ghost' Santos
Tom Sizemore 	... 	Col. Bunker
Bruce Boxleitner 	... 	Cpt. Dyer
Sofya Skya 	... 	Lt. Sasha Villanoff
Danny Trejo 	... 	Matador
Steven Bauer 	... 	Agent Stubbs
Damone Williams 	... 	Pvt. Willard
Christine Scott Bennett 	... 	Madonna
Johnathon Freeman 	... 	Ice
Angie Hill 	... 	Switch
Igor Jijikine 	... 	Spider
Vernon Wells 	... 	General Ruth
Andrew Divoff 	... 	Lt. Stronach
Cal Rein 	... 	Agent McDonald 

Data Technical :
!!! SAMPLE !!!
Audio.....: English
Subtitles.: None
Format                           : AVI
Format/Info                      : Audio Video Interleave
File size                        : 701 MiB
Duration                         : 1h 25mn
Overall bit rate                 : 1 152 Kbps
Writing application              : VirtualDubMod 1.5.10.2 (build 2540/release)
Writing library                  : VirtualDubMod build 2540/release
Video
ID                               : 0
Format                           : MPEG-4 Visual
Format profile                   : Advanced Simple@L5
Format settings, BVOP            : Yes
Format settings, QPel            : No
Format settings, GMC             : No warppoints
Format settings, Matrix          : Default (H.263)
Codec ID                         : XVID
Codec ID/Hint                    : XviD
Duration                         : 1h 25mn
Bit rate                         : 1 008 Kbps
Width                            : 624 pixels
Height                           : 352 pixels
Display aspect ratio             : 16:9
Frame rate                       : 23.976 fps
Color space                      : YUV
Chroma subsampling               : 4:2:0
Bit depth                        : 8 bits
Scan type                        : Progressive
Bits/(Pixel*Frame)               : 0.191
Stream size                      : 614 MiB (88%)
Writing library                  : XviD 1.2.1 (UTC 2008-12-04)
Audio
ID                               : 1
Format                           : MPEG Audio
Format version                   : Version 1
Format profile                   : Layer 3
Mode                             : Joint stereo
Mode extension                   : MS Stereo
Codec ID                         : 55
Codec ID/Hint                    : MP3
Duration                         : 1h 25mn
Bit rate mode                    : Variable
Bit rate                         : 131 Kbps
Minimum bit rate                 : 32.0 Kbps
Channel(s)                       : 2 channels
Sampling rate                    : 48.0 KHz
Stream size                      : 79.7 MiB (11%)
Alignment                        : Aligned on interleaves
Interleave, duration             : 24 ms (0.58 video frame)
Interleave, preload duration     : 459 ms
Writing library                  : LAME3.98r
Encoding settings                : -m j -V 5 -q 2 -lowpass 16.5 --vbr-new -b 32

Screen : 
http://img840.imageshack.us/img840/61/shadowsinparadise2010s1.jpg 
http://img707.imageshack.us/img707/3818/shadowsinparadise2010s2.jpg 
http://img233.imageshack.us/img233/4994/shadowsinparadise2010s3.jpg 
http://img833.imageshack.us/img833/6706/shadowsinparadise2010s4.jpg 
http://img854.imageshack.us/img854/6515/shadowsinparadise2010s5.jpg